# xmcd
#
# Track frame offsets: 
#        182
#        11072
#        24090
#        36940
#        48440
#        61005
#        73545
#        85387
#        96785
#        109187
#        124095
#        135767
#        148875
#        159677
#        170930
#        181635
#        195457
#        207232
#        219585
#        230210
#        243765
#        258462
#
# Disc length: 3643 seconds
#
# Revision: 5
# Processed by: cddbd v1.5.2PL0 Copyright (c) Steve Scherf et al.
# Submitted via: ExactAudioCopy v1.3
#
DISCID=350e3916
DTITLE=Various Artist - Rhythm And Blues Vol. 11 1962
DYEAR=1991
DGENRE=R&B
TTITLE0=Little Eva - The Loco-Motion
TTITLE1=Don Gardner And Dee Dee Ford - I Need Your Lovin'
TTITLE2=Booker T. And The MGs - Green Onions
TTITLE3=Bobby Bland - Turn On Your Love Light
TTITLE4=Etta James - Something's Got A Hold On Me
TTITLE5=Ben E. King - Don't Play That Song (You Lied)
TTITLE6=Shirelles - Baby It's You
TTITLE7=Solomon Burke - Cry To Me
TTITLE8=Mary Wells - You Beat Me To The Punch
TTITLE9=Chuck Jackson - Any Day Now (My Wild Beautiful Bird)
TTITLE10=Ketty Lester - Love Letters
TTITLE11=Contours - Do You Love Me
TTITLE12=Barbara George - I Know (You Don't Love Me No More)
TTITLE13=Isley Brothers - Twist And Shout
TTITLE14=Gene Chandler - Duke Of Earl
TTITLE15=Sensations - Let Me In
TTITLE16=Drifters - Up On The Roof
TTITLE17=King Curtis - Soul Twist
TTITLE18=Barbara Lynn - You'll Lose A Good Thing
TTITLE19=Joe Henderson - Snap Your Fingers
TTITLE20=Johnny Guitar Watson - Cuttin' In
TTITLE21=Esther Phillips - Release Me
EXTD=Time-Life Music RHD-11 OPCD-2648
EXTT0=
EXTT1=
EXTT2=
EXTT3=
EXTT4=
EXTT5=
EXTT6=
EXTT7=
EXTT8=
EXTT9=
EXTT10=
EXTT11=
EXTT12=
EXTT13=
EXTT14=
EXTT15=
EXTT16=
EXTT17=
EXTT18=
EXTT19=
EXTT20=
EXTT21=
PLAYORDER=
